<svg xmlns="http://www.w3.org/2000/svg" viewBox="0 0 200 200" width="64" height="64" role="img" aria-label="桜花">
  <title>桜花花紋</title>
  <defs>
    <path id="p" d="M0 0 C -16 -14, -26 -34, -24 -50 C -22 -62, -12 -68, -5 -60 C -3 -57.5, -2 -56.5, 0 -54 C 2 -56.5, 3 -57.5, 5 -60 C 12 -68, 22 -62, 24 -50 C 26 -34, 16 -14, 0 0 Z"/>
    <mask id="nuki"><rect width="200" height="200" fill="#fff"/>
      <g transform="translate(100,100)" stroke="#000" stroke-linecap="round" fill="#000">
        <circle r="9"/>
        <g stroke-width="4.4"><line y2="-54" transform="rotate(36)"/><line y2="-54" transform="rotate(108)"/><line y2="-54" transform="rotate(180)"/><line y2="-54" transform="rotate(252)"/><line y2="-54" transform="rotate(324)"/></g>
        <g stroke-width="3.2"><line y2="-34"/><line y2="-34" transform="rotate(72)"/><line y2="-34" transform="rotate(144)"/><line y2="-34" transform="rotate(216)"/><line y2="-34" transform="rotate(288)"/></g>
      </g>
    </mask>
  </defs>
  <g mask="url(#nuki)"><g transform="translate(100,100) scale(1.28)" fill="#E79BB1">
    <use href="#p"/><use href="#p" transform="rotate(72)"/><use href="#p" transform="rotate(144)"/>
    <use href="#p" transform="rotate(216)"/><use href="#p" transform="rotate(288)"/>
  </g></g>
</svg>
